<?xml version="1.0" encoding="UTF-8"?>
<svg xmlns="http://www.w3.org/2000/svg" xmlns:xlink="http://www.w3.org/1999/xlink" width="24px" height="24px" viewBox="0 0 24 24" version="1.1">
    <!-- Generator: Sketch 51.3 (57544) - http://www.bohemiancoding.com/sketch -->
    <title>298 - Edit </title>
    <desc>Created with Sketch.</desc>
    <defs/>
    <g id="Page-1" stroke="none" stroke-width="1" fill="none" fill-rule="evenodd">
        <g id="298---Edit-" fill="#40464C" fill-rule="nonzero">
            <path d="M0.0305,23.3215 C-0.0354944984,23.5063709 0.0111576256,23.712725 0.150259894,23.851228 C0.289362163,23.9897311 0.495915678,24.035492 0.6805,23.9687 L6.0557,22.023 L1.96,17.9165 L0.0305,23.3215 Z" id="Shape"/>
            <rect id="Rectangle-path" transform="translate(11.172868, 12.816357) rotate(-44.995400) translate(-11.172868, -12.816357) " x="3.073468" y="9.56690651" width="16.1988" height="6.4989"/>
            <path d="M23.0476,0.9525 C22.437844,0.342619983 21.6107629,-1.74684194e-05 20.74835,-1.74684194e-05 C19.8859371,-1.74684194e-05 19.058856,0.342619983 18.4491,0.9525 L18.45,0.9531 L18.4447,0.9531 L16.042,3.3561 L20.6342,7.96 L23.047,5.557 L23.047,5.5511 L23.0476,5.5518 C24.3173835,4.28162317 24.3173835,2.22267683 23.0476,0.9525 Z M23.0421,5.5463 L23.0369,5.5463 L23.0421,5.5463 Z" id="Shape"/>
        </g>
    </g>
</svg>
